<svg xmlns="http://www.w3.org/2000/svg" viewBox="0 0 100 100"><circle cx="50" cy="50" r="50" fill="#340C32"/><g fill="#FBC99B">
<path transform="rotate(0 50 50)" d="M51.18 10.02C52.01 10.74 54.99 13.19 56.15 14.38C57.31 15.57 57.59 16.03 58.16 17.17C58.72 18.3 59.35 19.84 59.55 21.18C59.75 22.52 59.74 23.91 59.38 25.19C59.01 26.47 58.79 27.44 57.37 28.85C55.95 30.26 52.39 32.37 50.83 33.65C49.27 34.93 48.85 35.48 48.04 36.53C47.23 37.58 46.54 38.64 45.95 39.93C45.35 41.22 44.94 43.42 44.46 44.29C43.98 45.16 43.48 45.03 43.07 45.16C42.66 45.29 42.65 45.54 42.02 45.08C41.4 44.61 40.16 43.74 39.32 42.37C38.48 41.01 37.47 38.68 36.96 36.88C36.45 35.08 36.28 33.27 36.27 31.56C36.25 29.84 36.43 28.29 36.88 26.59C37.33 24.89 38.08 23 38.97 21.35C39.86 19.71 40.92 18.17 42.2 16.73C43.48 15.29 45.15 13.84 46.64 12.72C48.14 11.6 50.42 10.47 51.18 10.02Z"/>
<path transform="rotate(60 50 50)" d="M51.18 10.02C52.01 10.74 54.99 13.19 56.15 14.38C57.31 15.57 57.59 16.03 58.16 17.17C58.72 18.3 59.35 19.84 59.55 21.18C59.75 22.52 59.74 23.91 59.38 25.19C59.01 26.47 58.79 27.44 57.37 28.85C55.95 30.26 52.39 32.37 50.83 33.65C49.27 34.93 48.85 35.48 48.04 36.53C47.23 37.58 46.54 38.64 45.95 39.93C45.35 41.22 44.94 43.42 44.46 44.29C43.98 45.16 43.48 45.03 43.07 45.16C42.66 45.29 42.65 45.54 42.02 45.08C41.4 44.61 40.16 43.74 39.32 42.37C38.48 41.01 37.47 38.68 36.96 36.88C36.45 35.08 36.28 33.27 36.27 31.56C36.25 29.84 36.43 28.29 36.88 26.59C37.33 24.89 38.08 23 38.97 21.35C39.86 19.71 40.92 18.17 42.2 16.73C43.48 15.29 45.15 13.84 46.64 12.72C48.14 11.6 50.42 10.47 51.18 10.02Z"/>
<path transform="rotate(120 50 50)" d="M51.18 10.02C52.01 10.74 54.99 13.19 56.15 14.38C57.31 15.57 57.59 16.03 58.16 17.17C58.72 18.3 59.35 19.84 59.55 21.18C59.75 22.52 59.74 23.91 59.38 25.19C59.01 26.47 58.79 27.44 57.37 28.85C55.95 30.26 52.39 32.37 50.83 33.65C49.27 34.93 48.85 35.48 48.04 36.53C47.23 37.58 46.54 38.64 45.95 39.93C45.35 41.22 44.94 43.42 44.46 44.29C43.98 45.16 43.48 45.03 43.07 45.16C42.66 45.29 42.65 45.54 42.02 45.08C41.4 44.61 40.16 43.74 39.32 42.37C38.48 41.01 37.47 38.68 36.96 36.88C36.45 35.08 36.28 33.27 36.27 31.56C36.25 29.84 36.43 28.29 36.88 26.59C37.33 24.89 38.08 23 38.97 21.35C39.86 19.71 40.92 18.17 42.2 16.73C43.48 15.29 45.15 13.84 46.64 12.72C48.14 11.6 50.42 10.47 51.18 10.02Z"/>
<path transform="rotate(180 50 50)" d="M51.18 10.02C52.01 10.74 54.99 13.19 56.15 14.38C57.31 15.57 57.59 16.03 58.16 17.17C58.72 18.3 59.35 19.84 59.55 21.18C59.75 22.52 59.74 23.91 59.38 25.19C59.01 26.47 58.79 27.44 57.37 28.85C55.95 30.26 52.39 32.37 50.83 33.65C49.27 34.93 48.85 35.48 48.04 36.53C47.23 37.58 46.54 38.64 45.95 39.93C45.35 41.22 44.94 43.42 44.46 44.29C43.98 45.16 43.48 45.03 43.07 45.16C42.66 45.29 42.65 45.54 42.02 45.08C41.4 44.61 40.16 43.74 39.32 42.37C38.48 41.01 37.47 38.68 36.96 36.88C36.45 35.08 36.28 33.27 36.27 31.56C36.25 29.84 36.43 28.29 36.88 26.59C37.33 24.89 38.08 23 38.97 21.35C39.86 19.71 40.92 18.17 42.2 16.73C43.48 15.29 45.15 13.84 46.64 12.72C48.14 11.6 50.42 10.47 51.18 10.02Z"/>
<path transform="rotate(240 50 50)" d="M51.18 10.02C52.01 10.74 54.99 13.19 56.15 14.38C57.31 15.57 57.59 16.03 58.16 17.17C58.72 18.3 59.35 19.84 59.55 21.18C59.75 22.52 59.74 23.91 59.38 25.19C59.01 26.47 58.79 27.44 57.37 28.85C55.95 30.26 52.39 32.37 50.83 33.65C49.27 34.93 48.85 35.48 48.04 36.53C47.23 37.58 46.54 38.64 45.95 39.93C45.35 41.22 44.94 43.42 44.46 44.29C43.98 45.16 43.48 45.03 43.07 45.16C42.66 45.29 42.65 45.54 42.02 45.08C41.4 44.61 40.16 43.74 39.32 42.37C38.48 41.01 37.47 38.68 36.96 36.88C36.45 35.08 36.28 33.27 36.27 31.56C36.25 29.84 36.43 28.29 36.88 26.59C37.33 24.89 38.08 23 38.97 21.35C39.86 19.71 40.92 18.17 42.2 16.73C43.48 15.29 45.15 13.84 46.64 12.72C48.14 11.6 50.42 10.47 51.18 10.02Z"/>
<path transform="rotate(300 50 50)" d="M51.18 10.02C52.01 10.74 54.99 13.19 56.15 14.38C57.31 15.57 57.59 16.03 58.16 17.17C58.72 18.3 59.35 19.84 59.55 21.18C59.75 22.52 59.74 23.91 59.38 25.19C59.01 26.47 58.79 27.44 57.37 28.85C55.95 30.26 52.39 32.37 50.83 33.65C49.27 34.93 48.85 35.48 48.04 36.53C47.23 37.58 46.54 38.64 45.95 39.93C45.35 41.22 44.94 43.42 44.46 44.29C43.98 45.16 43.48 45.03 43.07 45.16C42.66 45.29 42.65 45.54 42.02 45.08C41.4 44.61 40.16 43.74 39.32 42.37C38.48 41.01 37.47 38.68 36.96 36.88C36.45 35.08 36.28 33.27 36.27 31.56C36.25 29.84 36.43 28.29 36.88 26.59C37.33 24.89 38.08 23 38.97 21.35C39.86 19.71 40.92 18.17 42.2 16.73C43.48 15.29 45.15 13.84 46.64 12.72C48.14 11.6 50.42 10.47 51.18 10.02Z"/>
</g><circle cx="50" cy="50" r="5.31" fill="#99275D"/></svg>
